<svg width="55" height="55" viewBox="0 0 55 55" fill="none" xmlns="http://www.w3.org/2000/svg">
<rect width="55" height="55" rx="27.5" fill="#F5F5F5"/>
<path d="M25.3542 20.0056C25.6207 20.2848 25.7486 20.6222 25.738 21.0178C25.7264 21.4133 25.5874 21.7507 25.3209 22.0299L21.5564 25.9738L36.4145 25.9738C36.7921 25.9738 37.1088 26.1078 37.3646 26.3758C37.6196 26.6429 37.7471 26.9743 37.7471 27.3698C37.7471 27.7654 37.6196 28.0972 37.3646 28.3652C37.1088 28.6323 36.7921 28.7659 36.4145 28.7659L21.5564 28.7659L25.3542 32.7446C25.6207 33.0238 25.754 33.3556 25.754 33.74C25.754 34.1235 25.6207 34.4548 25.3542 34.734C25.0877 35.0132 24.771 35.1528 24.4041 35.1528C24.0381 35.1528 23.7218 35.0132 23.4553 34.734L17.3588 28.3471C17.2256 28.2074 17.1309 28.0562 17.075 27.8933C17.0199 27.7305 16.9924 27.556 16.9924 27.3698C16.9924 27.1837 17.0199 27.0092 17.075 26.8463C17.1309 26.6834 17.2256 26.5322 17.3588 26.3926L23.4886 19.9707C23.7329 19.7148 24.0381 19.5868 24.4041 19.5868C24.771 19.5868 25.0877 19.7264 25.3542 20.0056Z" fill="black"/>
</svg>
