<svg width="500" height="196" viewBox="0 0 500 196" fill="none" xmlns="http://www.w3.org/2000/svg">
<path d="M24.9292 66.9713C32.5007 54.1341 43.9085 38.0648 59.2058 18.7353C56.1143 26.5751 53.6489 34.7164 51.8446 43.0657L51.8431 43.0727L51.8416 43.0798C45.8947 71.3889 51.1438 92.898 68.4805 106.71L68.4903 106.718L68.5002 106.726C76.8499 113.243 88.1467 116.364 102.122 116.364C113.288 116.364 125.776 114.361 139.561 110.412L139.575 110.408L139.589 110.404L469.42 11.7554L133.139 171.463C133.137 171.464 133.136 171.465 133.134 171.465C102.95 185.709 77.8609 192.719 57.7882 192.719C35.2336 192.719 19.187 183.993 9.18938 166.631C2.94637 155.554 1.00178 141.319 3.65583 123.671C6.306 106.048 13.3769 87.1768 24.9292 66.9713Z" stroke="white" stroke-width="5"/>
</svg>
